HIERARCHY
ROOT Hips
{
	OFFSET 0.000000 103.266502 0.000000
	CHANNELS 6 Xposition Yposition Zposition Xrotation Yrotation Zrotation 
	JOINT Spine
	{
		OFFSET -0.002400 12.777504 0.315300
		CHANNELS 3 Xrotation Yrotation Zrotation
		JOINT Spine1
		{
			OFFSET -0.002067 5.816869 0.032633
			CHANNELS 3 Xrotation Yrotation Zrotation
			JOINT Spine1_split
			{
				OFFSET -0.002067 5.816869 0.032633
				CHANNELS 3 Xrotation Yrotation Zrotation
				JOINT Spine2
				{
					OFFSET -0.002067 5.816869 0.032633
					CHANNELS 3 Xrotation Yrotation Zrotation
					JOINT Neck
					{
						OFFSET -0.003700 21.199493 -0.826900
						CHANNELS 3 Xrotation Yrotation Zrotation
						JOINT Head
						{
							OFFSET 0.000000 20.442200 4.834800
							CHANNELS 3 Xrotation Yrotation Zrotation
							JOINT HeadTop_End
							{
								OFFSET 0.000000 34.668396 4.968400
								CHANNELS 3 Xrotation Yrotation Zrotation
								End Site
								{
									OFFSET 0.000000 0.000000 0.000000
								}
							}
						}
					}
					JOINT LeftShoulder
					{
						OFFSET 3.288150 8.794197 -1.372250
						CHANNELS 3 Xrotation Yrotation Zrotation
						JOINT LeftShoulder_split
						{
							OFFSET 3.288150 8.794197 -1.372250
							CHANNELS 3 Xrotation Yrotation Zrotation
							JOINT LeftArm
							{
								OFFSET 11.953299 -2.279007 -0.146200
								CHANNELS 3 Xrotation Yrotation Zrotation
								JOINT LeftForeArm
								{
									OFFSET 18.448900 0.000000 0.000000
									CHANNELS 3 Xrotation Yrotation Zrotation
									JOINT LeftHand
									{
										OFFSET 29.527798 0.000000 0.000000
										CHANNELS 3 Xrotation Yrotation Zrotation
										JOINT LeftHandThumb1
										{
											OFFSET 10.739754 -2.369614 9.225399
											CHANNELS 3 Xrotation Yrotation Zrotation
											JOINT LeftHandThumb2
											{
												OFFSET 4.926170 -2.844131 2.844125
												CHANNELS 3 Xrotation Yrotation Zrotation
												JOINT LeftHandThumb3
												{
													OFFSET 4.614891 -2.664413 2.664409
													CHANNELS 3 Xrotation Yrotation Zrotation
													JOINT LeftHandThumb4
													{
														OFFSET 4.432465 -2.559082 2.559083
														CHANNELS 3 Xrotation Yrotation Zrotation
														End Site
														{
															OFFSET 0.000000 0.000000 0.000000
														}
													}
												}
											}
										}
										JOINT LeftHandIndex1
										{
											OFFSET 26.467674 0.187653 6.405298
											CHANNELS 3 Xrotation Yrotation Zrotation
											JOINT LeftHandIndex2
											{
												OFFSET 8.792900 0.000000 0.000000
												CHANNELS 3 Xrotation Yrotation Zrotation
												JOINT LeftHandIndex3
												{
													OFFSET 10.075203 0.000000 0.000000
													CHANNELS 3 Xrotation Yrotation Zrotation
													End Site
													{
														OFFSET 0.000000 0.000000 0.000000
													}
												}
											}
										}
										JOINT LeftHandMiddle1
										{
											OFFSET 25.764404 0.000000 0.000000
											CHANNELS 3 Xrotation Yrotation Zrotation
											JOINT LeftHandMiddle2
											{
												OFFSET 9.393974 0.000000 0.000000
												CHANNELS 3 Xrotation Yrotation Zrotation
												JOINT LeftHandMiddle3
												{
													OFFSET 10.771950 0.000000 0.000000
													CHANNELS 3 Xrotation Yrotation Zrotation
													End Site
													{
														OFFSET 0.000000 0.000000 0.000000
													}
												}
											}
										}
										JOINT LeftHandRing1
										{
											OFFSET 24.660927 0.144547 -6.225808
											CHANNELS 3 Xrotation Yrotation Zrotation
											JOINT LeftHandRing2
											{
												OFFSET 9.393799 0.000000 0.000000
												CHANNELS 3 Xrotation Yrotation Zrotation
												JOINT LeftHandRing3
												{
													OFFSET 9.928497 0.000000 0.000000
													CHANNELS 3 Xrotation Yrotation Zrotation
													End Site
													{
														OFFSET 0.000000 0.000000 0.000000
													}
												}
											}
										}
										JOINT LeftHandPinky1
										{
											OFFSET 23.655350 0.125290 -12.815412
											CHANNELS 3 Xrotation Yrotation Zrotation
											JOINT LeftHandPinky2
											{
												OFFSET 8.425102 0.000000 0.000000
												CHANNELS 3 Xrotation Yrotation Zrotation
												JOINT LeftHandPinky3
												{
													OFFSET 8.147003 0.000000 0.000000
													CHANNELS 3 Xrotation Yrotation Zrotation
													End Site
													{
														OFFSET 0.000000 0.000000 0.000000
													}
												}
											}
										}
									}
								}
							}
						}
					}
					JOINT RightShoulder
					{
						OFFSET -3.249400 8.794197 -1.372250
						CHANNELS 3 Xrotation Yrotation Zrotation
						JOINT RightShoulder_split
						{
							OFFSET -3.249400 8.794197 -1.372250
							CHANNELS 3 Xrotation Yrotation Zrotation
							JOINT RightArm
							{
								OFFSET -11.953299 -2.279007 -0.146200
								CHANNELS 3 Xrotation Yrotation Zrotation
								JOINT RightForeArm
								{
									OFFSET -18.448900 0.000000 0.000000
									CHANNELS 3 Xrotation Yrotation Zrotation
									JOINT RightHand
									{
										OFFSET -29.527802 0.000000 0.000000
										CHANNELS 3 Xrotation Yrotation Zrotation
										JOINT RightHandThumb1
										{
											OFFSET -10.739754 -2.369614 9.225399
											CHANNELS 3 Xrotation Yrotation Zrotation
											JOINT RightHandThumb2
											{
												OFFSET -4.926170 -2.844131 2.844125
												CHANNELS 3 Xrotation Yrotation Zrotation
												JOINT RightHandThumb3
												{
													OFFSET -4.614891 -2.664413 2.664409
													CHANNELS 3 Xrotation Yrotation Zrotation
													JOINT RightHandThumb4
													{
														OFFSET -4.432465 -2.559082 2.559083
														CHANNELS 3 Xrotation Yrotation Zrotation
														End Site
														{
															OFFSET 0.000000 0.000000 0.000000
														}
													}
												}
											}
										}
										JOINT RightHandIndex1
										{
											OFFSET -26.467674 0.187653 6.405298
											CHANNELS 3 Xrotation Yrotation Zrotation
											JOINT RightHandIndex2
											{
												OFFSET -8.792900 0.000000 0.000000
												CHANNELS 3 Xrotation Yrotation Zrotation
												JOINT RightHandIndex3
												{
													OFFSET -10.075203 0.000000 0.000000
													CHANNELS 3 Xrotation Yrotation Zrotation
													End Site
													{
														OFFSET 0.000000 0.000000 0.000000
													}
												}
											}
										}
										JOINT RightHandMiddle1
										{
											OFFSET -25.764404 0.000000 0.000000
											CHANNELS 3 Xrotation Yrotation Zrotation
											JOINT RightHandMiddle2
											{
												OFFSET -9.393974 0.000000 0.000000
												CHANNELS 3 Xrotation Yrotation Zrotation
												JOINT RightHandMiddle3
												{
													OFFSET -10.771950 0.000000 0.000000
													CHANNELS 3 Xrotation Yrotation Zrotation
													End Site
													{
														OFFSET 0.000000 0.000000 0.000000
													}
												}
											}
										}
										JOINT RightHandRing1
										{
											OFFSET -24.660927 0.144547 -6.225808
											CHANNELS 3 Xrotation Yrotation Zrotation
											JOINT RightHandRing2
											{
												OFFSET -9.393799 0.000000 0.000000
												CHANNELS 3 Xrotation Yrotation Zrotation
												JOINT RightHandRing3
												{
													OFFSET -9.928497 0.000000 0.000000
													CHANNELS 3 Xrotation Yrotation Zrotation
													End Site
													{
														OFFSET 0.000000 0.000000 0.000000
													}
												}
											}
										}
										JOINT RightHandPinky1
										{
											OFFSET -23.655350 0.125290 -12.815412
											CHANNELS 3 Xrotation Yrotation Zrotation
											JOINT RightHandPinky2
											{
												OFFSET -8.425102 0.000000 0.000000
												CHANNELS 3 Xrotation Yrotation Zrotation
												JOINT RightHandPinky3
												{
													OFFSET -8.147003 0.000000 0.000000
													CHANNELS 3 Xrotation Yrotation Zrotation
													End Site
													{
														OFFSET 0.000000 0.000000 0.000000
													}
												}
											}
										}
									}
								}
							}
						}
					}
				}
			}
		}
	}
	JOINT LeftUpLeg
	{
		OFFSET 11.394100 -6.187798 -0.413800
		CHANNELS 3 Xrotation Yrotation Zrotation
		JOINT LeftLeg
		{
			OFFSET 0.430247 -32.302673 3.732800
			CHANNELS 3 Xrotation Yrotation Zrotation
			JOINT LeftFoot
			{
				OFFSET -0.430247 -48.264931 -6.423300
				CHANNELS 3 Xrotation Yrotation Zrotation
				JOINT LeftToeBase
				{
					OFFSET 4.230900 -16.068199 23.438400
					CHANNELS 3 Xrotation Yrotation Zrotation
					JOINT LeftToe_End
					{
						OFFSET 4.510700 0.695400 19.974600
						CHANNELS 3 Xrotation Yrotation Zrotation
						End Site
						{
							OFFSET 0.000000 0.000000 0.000000
						}
					}
				}
			}
		}
	}
	JOINT RightUpLeg
	{
		OFFSET -11.333700 -6.187798 -0.413800
		CHANNELS 3 Xrotation Yrotation Zrotation
		JOINT RightLeg
		{
			OFFSET -0.430392 -32.302628 3.733000
			CHANNELS 3 Xrotation Yrotation Zrotation
			JOINT RightFoot
			{
				OFFSET 0.430392 -48.264973 -6.423500
				CHANNELS 3 Xrotation Yrotation Zrotation
				JOINT RightToeBase
				{
					OFFSET -4.230900 -16.068199 23.438400
					CHANNELS 3 Xrotation Yrotation Zrotation
					JOINT RightToe_End
					{
						OFFSET -4.510700 0.695400 19.974600
						CHANNELS 3 Xrotation Yrotation Zrotation
						End Site
						{
							OFFSET 0.000000 0.000000 0.000000
						}
					}
				}
			}
		}
	}
}
MOTION
Frames: 4
Frame Time: 0.016667
9.007076 75.816551 51.810032 -14.610963 -42.126688 -8.625594 22.984973 5.869168 -9.864058 0.646531 0.929557 0.134780 0.000000 0.000000 0.000000 0.636331 0.960695 0.115372 4.340619 13.104375 0.961784 1.464761 20.711691 -6.151120 0.000001 -0.000000 0.000000 0.727746 3.027000 -7.324551 0.000000 0.000000 0.000000 -54.688601 2.382184 -44.353432 -0.000080 -113.998569 -0.000074 -8.744113 -11.473582 -10.700537 -6.141202 -11.690805 -6.761675 9.914122 42.595519 3.409860 -0.422807 8.108097 27.509108 -0.000001 -0.000001 0.000000 0.255315 3.378221 -45.814341 5.654091 5.847757 -88.067455 -0.000000 0.000000 -0.000000 -0.461470 3.841590 -39.722676 6.450755 5.820352 -95.892892 0.000001 -0.000001 -0.000001 0.469726 4.966833 -39.799447 8.181040 5.368618 -113.502991 -0.000000 0.000000 0.000000 -3.762419 9.063697 -45.253821 5.342523 5.828996 -85.005311 0.000000 0.000001 -0.000001 2.812978 13.874461 -5.932522 0.000000 0.000000 0.000000 -45.155835 21.957417 84.432975 0.000004 114.502562 -0.000000 1.729117 20.759645 7.523808 -7.341082 13.749663 7.412316 9.855754 -44.489107 -3.903286 -0.115769 -14.513075 -28.973857 -0.000001 0.000001 -0.000002 -0.124372 -2.384790 45.108874 4.500581 -4.654549 88.071137 0.000002 0.000001 0.000001 -0.761619 -2.932901 39.031065 5.133883 -4.632765 95.881670 0.000001 -0.000001 0.000001 0.154764 -4.068820 39.122678 6.509724 -4.273607 113.462857 -0.000001 0.000000 0.000000 -4.198875 -8.025524 44.637783 4.252919 -4.639629 85.014839 0.000000 -0.000001 0.000001 -51.403672 -3.433719 28.046529 58.047339 -5.081648 7.006975 2.047729 -11.155562 -24.849456 1.218207 -0.000014 0.000001 0.000000 -0.000002 -0.000000 -36.377758 4.903252 -37.342898 83.627518 4.277428 -10.557913 -8.569032 -9.222380 20.145402 -13.522134 -0.065433 3.063933 -0.000000 0.000000 -0.000000 
8.224625 76.397713 50.160988 -13.820449 -42.052331 -7.589389 21.212363 6.552340 -8.810854 1.010366 1.004082 -0.234456 0.000000 0.000000 0.000000 1.004578 1.022904 -0.248462 4.766926 13.065341 0.442459 1.896279 20.295887 -6.198563 0.000001 -0.000000 -0.000000 0.722457 3.377165 -7.482013 0.000000 0.000000 0.000000 -53.816095 2.392657 -44.340622 -0.000100 -114.488532 -0.000112 -8.831643 -10.561565 -10.712643 -6.141201 -11.690807 -6.761677 9.914120 42.595519 3.409855 -0.422812 8.108102 27.509108 -0.000001 -0.000003 0.000001 0.255316 3.378219 -45.814337 5.654090 5.847756 -88.067448 -0.000000 -0.000001 0.000000 -0.461472 3.841591 -39.722676 6.450751 5.820352 -95.892892 -0.000001 0.000002 0.000000 0.469725 4.966834 -39.799444 8.181043 5.368618 -113.502991 0.000001 0.000002 -0.000000 -3.762420 9.063696 -45.253818 5.342525 5.828997 -85.005311 0.000001 -0.000002 0.000000 2.844846 14.234611 -6.010196 0.000000 0.000000 0.000000 -45.524024 21.500544 84.730211 0.000064 114.409739 -0.000079 1.034108 19.977808 8.075898 -7.341082 13.749664 7.412315 9.855750 -44.489103 -3.903276 -0.115769 -14.513083 -28.973857 0.000000 -0.000003 0.000002 -0.124371 -2.384791 45.108874 4.500582 -4.654550 88.071137 0.000001 0.000000 0.000001 -0.761617 -2.932902 39.031068 5.133881 -4.632762 95.881663 0.000002 -0.000002 0.000001 0.154765 -4.068822 39.122682 6.509723 -4.273602 113.462850 0.000002 -0.000001 -0.000000 -4.198874 -8.025523 44.637789 4.252919 -4.639628 85.014839 0.000002 0.000001 0.000002 -49.872006 -2.528999 28.368711 53.820460 -5.609200 6.972775 3.829192 -11.326647 -25.780747 1.173036 -0.000000 0.000002 0.000000 -0.000000 0.000000 -34.721147 2.800217 -36.524515 81.443483 5.284337 -10.506075 -12.574087 -11.963111 20.849514 -12.813998 0.000002 0.000001 -0.000000 -0.000002 0.000001 
7.470963 76.908508 48.446877 -12.750656 -41.724748 -6.425976 19.373104 7.103839 -7.698624 1.352512 1.057874 -0.608380 0.000000 0.000000 0.000000 1.352140 1.065434 -0.615883 5.139177 13.011473 -0.052974 2.198363 19.765678 -6.130646 0.000001 -0.000000 0.000000 0.720598 3.654621 -7.622853 0.000000 0.000000 0.000000 -53.440807 2.217202 -44.400276 0.000029 -114.716879 0.000032 -8.688886 -9.634166 -11.046163 -6.141205 -11.690807 -6.761680 9.914125 42.595515 3.409855 -0.422807 8.108095 27.509106 -0.000002 -0.000002 0.000000 0.255313 3.378221 -45.814337 5.654090 5.847755 -88.067455 -0.000000 0.000001 0.000000 -0.461472 3.841590 -39.722679 6.450754 5.820350 -95.892892 -0.000001 0.000000 -0.000000 0.469725 4.966832 -39.799444 8.181043 5.368618 -113.502991 -0.000000 0.000001 0.000000 -3.762422 9.063698 -45.253818 5.342521 5.828996 -85.005311 0.000001 -0.000001 0.000001 2.810629 14.537259 -6.138980 0.000000 0.000000 0.000000 -46.080192 20.947447 84.878829 -0.000011 114.352257 0.000003 0.145109 19.111356 8.651130 -7.341084 13.749666 7.412317 9.855759 -44.489107 -3.903274 -0.115768 -14.513076 -28.973864 -0.000001 0.000002 -0.000001 -0.124372 -2.384786 45.108874 4.500580 -4.654548 88.071137 0.000000 -0.000003 -0.000001 -0.761617 -2.932897 39.031068 5.133883 -4.632763 95.881663 -0.000000 -0.000000 0.000001 0.154765 -4.068819 39.122678 6.509724 -4.273603 113.462857 -0.000001 0.000002 0.000001 -4.198877 -8.025524 44.637789 4.252919 -4.639629 85.014846 0.000003 0.000000 0.000001 -48.727276 -1.746102 28.465741 49.682171 -6.038906 6.885895 5.623790 -11.777846 -26.541864 1.096861 -0.000005 -0.000017 0.000000 -0.000000 0.000000 -32.902462 0.821519 -36.336692 78.713443 5.634501 -9.351745 -16.817352 -13.581564 20.997255 -12.268517 -0.000021 -0.000004 0.000000 0.000001 -0.000000 
6.785557 77.456993 46.655159 -11.505960 -41.201265 -5.175292 17.643775 7.470946 -6.660058 1.638935 1.089198 -0.969848 0.000000 0.000000 0.000000 1.644422 1.086868 -0.970826 5.394268 12.949656 -0.475065 2.388282 19.167891 -5.962653 0.000003 0.000000 -0.000000 0.718279 3.843471 -7.721465 0.000000 0.000000 0.000000 -53.487375 1.962362 -44.508771 0.000007 -114.724515 0.000001 -8.343824 -8.919356 -11.544595 -6.141203 -11.690806 -6.761676 9.914125 42.595515 3.409861 -0.422811 8.108102 27.509106 0.000002 -0.000002 -0.000000 0.255313 3.378222 -45.814337 5.654092 5.847756 -88.067455 0.000001 0.000001 -0.000001 -0.461474 3.841590 -39.722676 6.450753 5.820351 -95.892892 0.000002 -0.000001 -0.000001 0.469724 4.966834 -39.799441 8.181042 5.368620 -113.502991 0.000001 0.000000 -0.000000 -3.762423 9.063700 -45.253821 5.342524 5.828998 -85.005311 0.000001 0.000001 0.000001 2.691449 14.753634 -6.327800 0.000000 0.000000 0.000000 -46.723053 20.456825 84.821599 -0.000039 114.332251 0.000044 -0.808694 18.412556 9.158087 -7.341084 13.749665 7.412313 9.855750 -44.489107 -3.903281 -0.115774 -14.513075 -28.973857 0.000000 0.000001 -0.000001 -0.124370 -2.384787 45.108878 4.500581 -4.654548 88.071137 0.000001 -0.000002 0.000001 -0.761618 -2.932900 39.031068 5.133881 -4.632764 95.881670 0.000001 0.000000 -0.000002 0.154765 -4.068820 39.122675 6.509727 -4.273603 113.462857 -0.000001 0.000003 0.000000 -4.198875 -8.025522 44.637783 4.252921 -4.639630 85.014839 0.000002 0.000001 0.000003 -48.020820 -1.254516 28.328836 46.285050 -6.196885 6.616528 6.424739 -12.125485 -27.146865 2.831139 -0.000022 0.000002 0.000000 -0.000002 0.000000 -31.691914 -0.888484 -36.191981 76.151343 5.479538 -7.877055 -20.412295 -14.273699 20.483520 -10.879056 -0.000012 0.000008 -0.000000 0.000001 -0.000001 
